<mxfile host="app.diagrams.net" agent="Mozilla/5.0 (Windows NT 10.0; Win64; x64) AppleWebKit/537.36 (KHTML, like Gecko) Chrome/128.0.0.0 YaBrowser/24.10.0.0 Safari/537.36" version="24.9.0">
  <diagram name="Страница — 1" id="H5RVGOrB8ZpVzanKwPm0">
    <mxGraphModel grid="1" page="1" gridSize="10" guides="1" tooltips="1" connect="1" arrows="1" fold="1" pageScale="1" pageWidth="1169" pageHeight="827" math="0" shadow="0">
      <root>
        <mxCell id="0" />
        <mxCell id="1" parent="0" />
        <mxCell id="zozidxdIgMNwXkoK9PDD-1" value="&lt;div style=&quot;background-color:#1e1f22;color:#bcbec4&quot;&gt;&lt;pre style=&quot;font-family:&#39;JetBrains Mono&#39;,monospace;font-size:9,8pt;&quot;&gt;Drivable&lt;/pre&gt;&lt;/div&gt;" style="swimlane;fontStyle=0;childLayout=stackLayout;horizontal=1;startSize=30;horizontalStack=0;resizeParent=1;resizeParentMax=0;resizeLast=0;collapsible=1;marginBottom=0;whiteSpace=wrap;html=1;" vertex="1" parent="1">
          <mxGeometry x="50" y="150" width="140" height="60" as="geometry" />
        </mxCell>
        <mxCell id="zozidxdIgMNwXkoK9PDD-2" value="&lt;div style=&quot;background-color:#1e1f22;color:#bcbec4&quot;&gt;&lt;pre style=&quot;font-family:&#39;JetBrains Mono&#39;,monospace;font-size:9,8pt;&quot;&gt;&lt;span style=&quot;color:#cf8e6d;&quot;&gt;void &lt;/span&gt;&lt;span style=&quot;color:#56a8f5;&quot;&gt;drive&lt;/span&gt;()&lt;/pre&gt;&lt;/div&gt;" style="text;strokeColor=none;fillColor=none;align=left;verticalAlign=middle;spacingLeft=4;spacingRight=4;overflow=hidden;points=[[0,0.5],[1,0.5]];portConstraint=eastwest;rotatable=0;whiteSpace=wrap;html=1;" vertex="1" parent="zozidxdIgMNwXkoK9PDD-1">
          <mxGeometry y="30" width="140" height="30" as="geometry" />
        </mxCell>
        <mxCell id="zozidxdIgMNwXkoK9PDD-6" value="&lt;div style=&quot;background-color:#1e1f22;color:#bcbec4&quot;&gt;&lt;pre style=&quot;font-family:&#39;JetBrains Mono&#39;,monospace;font-size:9,8pt;&quot;&gt;Transport&lt;/pre&gt;&lt;/div&gt;" style="swimlane;fontStyle=0;childLayout=stackLayout;horizontal=1;startSize=30;horizontalStack=0;resizeParent=1;resizeParentMax=0;resizeLast=0;collapsible=1;marginBottom=0;whiteSpace=wrap;html=1;" vertex="1" parent="1">
          <mxGeometry x="50" y="300" width="400" height="240" as="geometry" />
        </mxCell>
        <mxCell id="zozidxdIgMNwXkoK9PDD-7" value="&lt;div style=&quot;background-color:#1e1f22;color:#bcbec4&quot;&gt;&lt;pre style=&quot;font-family:&#39;JetBrains Mono&#39;,monospace;font-size:9,8pt;&quot;&gt;&lt;span style=&quot;color:#cf8e6d;&quot;&gt;protected &lt;/span&gt;String &lt;span style=&quot;color:#c77dbb;&quot;&gt;name&lt;/span&gt;;&lt;/pre&gt;&lt;/div&gt;" style="text;strokeColor=none;fillColor=none;align=left;verticalAlign=middle;spacingLeft=4;spacingRight=4;overflow=hidden;points=[[0,0.5],[1,0.5]];portConstraint=eastwest;rotatable=0;whiteSpace=wrap;html=1;" vertex="1" parent="zozidxdIgMNwXkoK9PDD-6">
          <mxGeometry y="30" width="400" height="30" as="geometry" />
        </mxCell>
        <mxCell id="zozidxdIgMNwXkoK9PDD-8" value="&lt;div style=&quot;background-color:#1e1f22;color:#bcbec4&quot;&gt;&lt;pre style=&quot;font-family:&#39;JetBrains Mono&#39;,monospace;font-size:9,8pt;&quot;&gt;&lt;span style=&quot;color:#cf8e6d;&quot;&gt;protected &lt;/span&gt;Engine &lt;span style=&quot;color:#c77dbb;&quot;&gt;engine&lt;/span&gt;;&lt;/pre&gt;&lt;/div&gt;" style="text;strokeColor=none;fillColor=none;align=left;verticalAlign=middle;spacingLeft=4;spacingRight=4;overflow=hidden;points=[[0,0.5],[1,0.5]];portConstraint=eastwest;rotatable=0;whiteSpace=wrap;html=1;" vertex="1" parent="zozidxdIgMNwXkoK9PDD-6">
          <mxGeometry y="60" width="400" height="30" as="geometry" />
        </mxCell>
        <mxCell id="zozidxdIgMNwXkoK9PDD-9" value="&lt;div style=&quot;background-color:#1e1f22;color:#bcbec4&quot;&gt;&lt;pre style=&quot;font-family:&#39;JetBrains Mono&#39;,monospace;font-size:9,8pt;&quot;&gt;&lt;span style=&quot;color:#cf8e6d;&quot;&gt;protected &lt;/span&gt;&lt;span style=&quot;color:#56a8f5;&quot;&gt;Transport&lt;/span&gt;(String name, String engineType)&lt;/pre&gt;&lt;pre style=&quot;font-family:&#39;JetBrains Mono&#39;,monospace;font-size:9,8pt;&quot;&gt;&lt;pre style=&quot;font-family:&#39;JetBrains Mono&#39;,monospace;font-size:9,8pt;&quot;&gt;&lt;pre style=&quot;font-family:&#39;JetBrains Mono&#39;,monospace;font-size:9,8pt;&quot;&gt;&lt;div&gt;&lt;pre style=&quot;font-family:&#39;JetBrains Mono&#39;,monospace;font-size:9,8pt;&quot;&gt;&lt;span style=&quot;color:#cf8e6d;&quot;&gt;protected static &lt;/span&gt;Engine &lt;span style=&quot;color:#56a8f5;&quot;&gt;createEngine&lt;/span&gt;(String engineType)&lt;/pre&gt;&lt;/div&gt;&lt;/pre&gt;&lt;/pre&gt;&lt;pre style=&quot;font-family:&#39;JetBrains Mono&#39;,monospace;font-size:9,8pt;&quot;&gt;&lt;pre style=&quot;font-family:&#39;JetBrains Mono&#39;,monospace;font-size:9,8pt;&quot;&gt;&lt;span style=&quot;color:#cf8e6d;&quot;&gt;public abstract void &lt;/span&gt;&lt;span style=&quot;color:#56a8f5;&quot;&gt;displayInfo&lt;/span&gt;()&lt;/pre&gt;&lt;pre style=&quot;font-family:&#39;JetBrains Mono&#39;,monospace;font-size:9,8pt;&quot;&gt;&lt;pre style=&quot;font-family:&#39;JetBrains Mono&#39;,monospace;font-size:9,8pt;&quot;&gt;&lt;div&gt;&lt;pre style=&quot;font-family:&#39;JetBrains Mono&#39;,monospace;font-size:9,8pt;&quot;&gt;&lt;span style=&quot;color:#cf8e6d;&quot;&gt;public &lt;/span&gt;Engine.EngineType &lt;span style=&quot;color:#56a8f5;&quot;&gt;getEngineType&lt;/span&gt;()&lt;/pre&gt;&lt;/div&gt;&lt;/pre&gt;&lt;/pre&gt;&lt;/pre&gt;&lt;/pre&gt;&lt;/div&gt;" style="text;strokeColor=none;fillColor=none;align=left;verticalAlign=middle;spacingLeft=4;spacingRight=4;overflow=hidden;points=[[0,0.5],[1,0.5]];portConstraint=eastwest;rotatable=0;whiteSpace=wrap;html=1;" vertex="1" parent="zozidxdIgMNwXkoK9PDD-6">
          <mxGeometry y="90" width="400" height="150" as="geometry" />
        </mxCell>
        <mxCell id="zozidxdIgMNwXkoK9PDD-11" value="" style="endArrow=block;startArrow=none;endFill=0;startFill=0;endSize=8;html=1;verticalAlign=bottom;dashed=1;labelBackgroundColor=none;rounded=0;entryX=0.527;entryY=1.044;entryDx=0;entryDy=0;entryPerimeter=0;exitX=0.187;exitY=-0.001;exitDx=0;exitDy=0;exitPerimeter=0;" edge="1" parent="1" source="zozidxdIgMNwXkoK9PDD-6" target="zozidxdIgMNwXkoK9PDD-2">
          <mxGeometry width="160" relative="1" as="geometry">
            <mxPoint x="220" y="300" as="sourcePoint" />
            <mxPoint x="380" y="300" as="targetPoint" />
          </mxGeometry>
        </mxCell>
        <mxCell id="zozidxdIgMNwXkoK9PDD-12" value="Реализация интерфейса" style="text;html=1;align=center;verticalAlign=middle;whiteSpace=wrap;rounded=0;" vertex="1" parent="1">
          <mxGeometry x="110" y="250" width="130" height="30" as="geometry" />
        </mxCell>
        <mxCell id="zozidxdIgMNwXkoK9PDD-13" value="Car" style="swimlane;fontStyle=0;childLayout=stackLayout;horizontal=1;startSize=26;horizontalStack=0;resizeParent=1;resizeParentMax=0;resizeLast=0;collapsible=1;marginBottom=0;align=center;fontSize=14;" vertex="1" parent="1">
          <mxGeometry x="50" y="660" width="170" height="130" as="geometry" />
        </mxCell>
        <mxCell id="zozidxdIgMNwXkoK9PDD-14" value="&lt;div style=&quot;background-color:#1e1f22;color:#bcbec4&quot;&gt;&lt;pre style=&quot;font-family:&#39;JetBrains Mono&#39;,monospace;font-size:9,8pt;&quot;&gt;&lt;span style=&quot;color:#cf8e6d;&quot;&gt;public &lt;/span&gt;&lt;span style=&quot;color:#56a8f5;&quot;&gt;Car&lt;/span&gt;(String name, String engineType)&lt;/pre&gt;&lt;/div&gt;" style="text;strokeColor=none;fillColor=none;spacingLeft=4;spacingRight=4;overflow=hidden;rotatable=0;points=[[0,0.5],[1,0.5]];portConstraint=eastwest;fontSize=12;whiteSpace=wrap;html=1;" vertex="1" parent="zozidxdIgMNwXkoK9PDD-13">
          <mxGeometry y="26" width="170" height="30" as="geometry" />
        </mxCell>
        <mxCell id="zozidxdIgMNwXkoK9PDD-15" value="&lt;div style=&quot;background-color:#1e1f22;color:#bcbec4&quot;&gt;&lt;pre style=&quot;font-family:&#39;JetBrains Mono&#39;,monospace;font-size:9,8pt;&quot;&gt;&lt;span style=&quot;color:#cf8e6d;&quot;&gt;public void &lt;/span&gt;&lt;span style=&quot;color:#56a8f5;&quot;&gt;drive&lt;/span&gt;()&lt;/pre&gt;&lt;/div&gt;" style="text;strokeColor=none;fillColor=none;spacingLeft=4;spacingRight=4;overflow=hidden;rotatable=0;points=[[0,0.5],[1,0.5]];portConstraint=eastwest;fontSize=12;whiteSpace=wrap;html=1;" vertex="1" parent="zozidxdIgMNwXkoK9PDD-13">
          <mxGeometry y="56" width="170" height="30" as="geometry" />
        </mxCell>
        <mxCell id="zozidxdIgMNwXkoK9PDD-16" value="&lt;div style=&quot;background-color:#1e1f22;color:#bcbec4&quot;&gt;&lt;pre style=&quot;font-family:&#39;JetBrains Mono&#39;,monospace;font-size:9,8pt;&quot;&gt;&lt;span style=&quot;color:#cf8e6d;&quot;&gt;public void &lt;/span&gt;&lt;span style=&quot;color:#56a8f5;&quot;&gt;displayInfo&lt;/span&gt;()&lt;/pre&gt;&lt;/div&gt;" style="text;strokeColor=none;fillColor=none;spacingLeft=4;spacingRight=4;overflow=hidden;rotatable=0;points=[[0,0.5],[1,0.5]];portConstraint=eastwest;fontSize=12;whiteSpace=wrap;html=1;" vertex="1" parent="zozidxdIgMNwXkoK9PDD-13">
          <mxGeometry y="86" width="170" height="44" as="geometry" />
        </mxCell>
        <mxCell id="zozidxdIgMNwXkoK9PDD-17" value="Plane" style="swimlane;fontStyle=0;childLayout=stackLayout;horizontal=1;startSize=26;horizontalStack=0;resizeParent=1;resizeParentMax=0;resizeLast=0;collapsible=1;marginBottom=0;align=center;fontSize=14;" vertex="1" parent="1">
          <mxGeometry x="290" y="660" width="320" height="140" as="geometry" />
        </mxCell>
        <mxCell id="zozidxdIgMNwXkoK9PDD-18" value="&lt;div style=&quot;background-color:#1e1f22;color:#bcbec4&quot;&gt;&lt;pre style=&quot;font-family:&#39;JetBrains Mono&#39;,monospace;font-size:9,8pt;&quot;&gt;&lt;span style=&quot;color:#cf8e6d;&quot;&gt;public &lt;/span&gt;&lt;span style=&quot;color:#56a8f5;&quot;&gt;Plane&lt;/span&gt;(String name, String engineType)&lt;/pre&gt;&lt;/div&gt;" style="text;strokeColor=none;fillColor=none;spacingLeft=4;spacingRight=4;overflow=hidden;rotatable=0;points=[[0,0.5],[1,0.5]];portConstraint=eastwest;fontSize=12;whiteSpace=wrap;html=1;" vertex="1" parent="zozidxdIgMNwXkoK9PDD-17">
          <mxGeometry y="26" width="320" height="30" as="geometry" />
        </mxCell>
        <mxCell id="zozidxdIgMNwXkoK9PDD-19" value="&lt;div style=&quot;background-color:#1e1f22;color:#bcbec4&quot;&gt;&lt;pre style=&quot;font-family:&#39;JetBrains Mono&#39;,monospace;font-size:9,8pt;&quot;&gt;&lt;pre style=&quot;font-family: &amp;quot;JetBrains Mono&amp;quot;, monospace;&quot;&gt;&lt;span style=&quot;color: rgb(207, 142, 109);&quot;&gt;public void &lt;/span&gt;&lt;span style=&quot;color: rgb(86, 168, 245);&quot;&gt;drive&lt;/span&gt;()&lt;/pre&gt;&lt;/pre&gt;&lt;/div&gt;" style="text;strokeColor=none;fillColor=none;spacingLeft=4;spacingRight=4;overflow=hidden;rotatable=0;points=[[0,0.5],[1,0.5]];portConstraint=eastwest;fontSize=12;whiteSpace=wrap;html=1;" vertex="1" parent="zozidxdIgMNwXkoK9PDD-17">
          <mxGeometry y="56" width="320" height="30" as="geometry" />
        </mxCell>
        <mxCell id="zozidxdIgMNwXkoK9PDD-20" value="&lt;div style=&quot;background-color:#1e1f22;color:#bcbec4&quot;&gt;&lt;pre style=&quot;font-family:&#39;JetBrains Mono&#39;,monospace;font-size:9,8pt;&quot;&gt;&lt;div&gt;&lt;pre style=&quot;font-family:&#39;JetBrains Mono&#39;,monospace;font-size:9,8pt;&quot;&gt;&lt;span style=&quot;color:#cf8e6d;&quot;&gt;public void &lt;/span&gt;&lt;span style=&quot;color:#56a8f5;&quot;&gt;displayInfo&lt;/span&gt;()&lt;/pre&gt;&lt;/div&gt;&lt;/pre&gt;&lt;/div&gt;" style="text;strokeColor=none;fillColor=none;spacingLeft=4;spacingRight=4;overflow=hidden;rotatable=0;points=[[0,0.5],[1,0.5]];portConstraint=eastwest;fontSize=12;whiteSpace=wrap;html=1;" vertex="1" parent="zozidxdIgMNwXkoK9PDD-17">
          <mxGeometry y="86" width="320" height="54" as="geometry" />
        </mxCell>
        <mxCell id="zozidxdIgMNwXkoK9PDD-21" value="Bicycle" style="swimlane;fontStyle=0;childLayout=stackLayout;horizontal=1;startSize=26;horizontalStack=0;resizeParent=1;resizeParentMax=0;resizeLast=0;collapsible=1;marginBottom=0;align=center;fontSize=14;" vertex="1" parent="1">
          <mxGeometry x="380" y="840" width="320" height="116" as="geometry" />
        </mxCell>
        <mxCell id="zozidxdIgMNwXkoK9PDD-22" value="&lt;div style=&quot;background-color:#1e1f22;color:#bcbec4&quot;&gt;&lt;pre style=&quot;font-family:&#39;JetBrains Mono&#39;,monospace;font-size:9,8pt;&quot;&gt;&lt;span style=&quot;color:#cf8e6d;&quot;&gt;public &lt;/span&gt;&lt;span style=&quot;color:#56a8f5;&quot;&gt;Bicycle&lt;/span&gt;(String name, String engineType)&lt;/pre&gt;&lt;/div&gt;" style="text;strokeColor=none;fillColor=none;spacingLeft=4;spacingRight=4;overflow=hidden;rotatable=0;points=[[0,0.5],[1,0.5]];portConstraint=eastwest;fontSize=12;whiteSpace=wrap;html=1;" vertex="1" parent="zozidxdIgMNwXkoK9PDD-21">
          <mxGeometry y="26" width="320" height="30" as="geometry" />
        </mxCell>
        <mxCell id="zozidxdIgMNwXkoK9PDD-23" value="&lt;div style=&quot;background-color:#1e1f22;color:#bcbec4&quot;&gt;&lt;pre style=&quot;font-family:&#39;JetBrains Mono&#39;,monospace;font-size:9,8pt;&quot;&gt;&lt;span style=&quot;color:#cf8e6d;&quot;&gt;public void &lt;/span&gt;&lt;span style=&quot;color:#56a8f5;&quot;&gt;drive&lt;/span&gt;() &lt;/pre&gt;&lt;/div&gt;" style="text;strokeColor=none;fillColor=none;spacingLeft=4;spacingRight=4;overflow=hidden;rotatable=0;points=[[0,0.5],[1,0.5]];portConstraint=eastwest;fontSize=12;whiteSpace=wrap;html=1;" vertex="1" parent="zozidxdIgMNwXkoK9PDD-21">
          <mxGeometry y="56" width="320" height="30" as="geometry" />
        </mxCell>
        <mxCell id="zozidxdIgMNwXkoK9PDD-24" value="&lt;div style=&quot;background-color:#1e1f22;color:#bcbec4&quot;&gt;&lt;pre style=&quot;font-family:&#39;JetBrains Mono&#39;,monospace;font-size:9,8pt;&quot;&gt;&lt;span style=&quot;color:#cf8e6d;&quot;&gt;public void &lt;/span&gt;&lt;span style=&quot;color:#56a8f5;&quot;&gt;displayInfo&lt;/span&gt;()&lt;/pre&gt;&lt;/div&gt;" style="text;strokeColor=none;fillColor=none;spacingLeft=4;spacingRight=4;overflow=hidden;rotatable=0;points=[[0,0.5],[1,0.5]];portConstraint=eastwest;fontSize=12;whiteSpace=wrap;html=1;" vertex="1" parent="zozidxdIgMNwXkoK9PDD-21">
          <mxGeometry y="86" width="320" height="30" as="geometry" />
        </mxCell>
        <mxCell id="zozidxdIgMNwXkoK9PDD-25" value="Ship" style="swimlane;fontStyle=0;childLayout=stackLayout;horizontal=1;startSize=26;horizontalStack=0;resizeParent=1;resizeParentMax=0;resizeLast=0;collapsible=1;marginBottom=0;align=center;fontSize=14;" vertex="1" parent="1">
          <mxGeometry x="50" y="860" width="310" height="130" as="geometry" />
        </mxCell>
        <mxCell id="zozidxdIgMNwXkoK9PDD-27" value="&lt;div style=&quot;background-color:#1e1f22;color:#bcbec4&quot;&gt;&lt;pre style=&quot;font-family:&#39;JetBrains Mono&#39;,monospace;font-size:9,8pt;&quot;&gt;&lt;span style=&quot;color:#cf8e6d;&quot;&gt;public &lt;/span&gt;&lt;span style=&quot;color:#56a8f5;&quot;&gt;Ship&lt;/span&gt;(String name, String engineType)&lt;/pre&gt;&lt;/div&gt;" style="text;strokeColor=none;fillColor=none;spacingLeft=4;spacingRight=4;overflow=hidden;rotatable=0;points=[[0,0.5],[1,0.5]];portConstraint=eastwest;fontSize=12;whiteSpace=wrap;html=1;" vertex="1" parent="zozidxdIgMNwXkoK9PDD-25">
          <mxGeometry y="26" width="310" height="30" as="geometry" />
        </mxCell>
        <mxCell id="zozidxdIgMNwXkoK9PDD-26" value="&lt;div style=&quot;background-color:#1e1f22;color:#bcbec4&quot;&gt;&lt;pre style=&quot;font-family:&#39;JetBrains Mono&#39;,monospace;font-size:9,8pt;&quot;&gt;&lt;span style=&quot;color:#cf8e6d;&quot;&gt;public void &lt;/span&gt;&lt;span style=&quot;color:#56a8f5;&quot;&gt;drive&lt;/span&gt;() &lt;/pre&gt;&lt;/div&gt;" style="text;strokeColor=none;fillColor=none;spacingLeft=4;spacingRight=4;overflow=hidden;rotatable=0;points=[[0,0.5],[1,0.5]];portConstraint=eastwest;fontSize=12;whiteSpace=wrap;html=1;" vertex="1" parent="zozidxdIgMNwXkoK9PDD-25">
          <mxGeometry y="56" width="310" height="30" as="geometry" />
        </mxCell>
        <mxCell id="zozidxdIgMNwXkoK9PDD-28" value="&lt;div style=&quot;background-color:#1e1f22;color:#bcbec4&quot;&gt;&lt;pre style=&quot;font-family:&#39;JetBrains Mono&#39;,monospace;font-size:9,8pt;&quot;&gt;&lt;span style=&quot;color:#cf8e6d;&quot;&gt;public void &lt;/span&gt;&lt;span style=&quot;color:#56a8f5;&quot;&gt;displayInfo&lt;/span&gt;()&lt;/pre&gt;&lt;/div&gt;" style="text;strokeColor=none;fillColor=none;spacingLeft=4;spacingRight=4;overflow=hidden;rotatable=0;points=[[0,0.5],[1,0.5]];portConstraint=eastwest;fontSize=12;whiteSpace=wrap;html=1;" vertex="1" parent="zozidxdIgMNwXkoK9PDD-25">
          <mxGeometry y="86" width="310" height="44" as="geometry" />
        </mxCell>
        <mxCell id="zozidxdIgMNwXkoK9PDD-29" value="" style="endArrow=block;html=1;rounded=0;align=center;verticalAlign=bottom;endFill=0;labelBackgroundColor=none;endSize=8;entryX=0.477;entryY=0.994;entryDx=0;entryDy=0;entryPerimeter=0;exitX=0.5;exitY=0;exitDx=0;exitDy=0;edgeStyle=elbowEdgeStyle;elbow=vertical;" edge="1" parent="1" source="zozidxdIgMNwXkoK9PDD-13" target="zozidxdIgMNwXkoK9PDD-9">
          <mxGeometry relative="1" as="geometry">
            <mxPoint x="150" y="670" as="sourcePoint" />
            <mxPoint x="310" y="670" as="targetPoint" />
            <Array as="points" />
          </mxGeometry>
        </mxCell>
        <mxCell id="zozidxdIgMNwXkoK9PDD-30" value="" style="resizable=0;html=1;align=center;verticalAlign=top;labelBackgroundColor=none;" connectable="0" vertex="1" parent="zozidxdIgMNwXkoK9PDD-29">
          <mxGeometry relative="1" as="geometry" />
        </mxCell>
        <mxCell id="zozidxdIgMNwXkoK9PDD-32" value="" style="endArrow=block;html=1;rounded=0;align=center;verticalAlign=bottom;endFill=0;labelBackgroundColor=none;endSize=8;exitX=0.5;exitY=0;exitDx=0;exitDy=0;edgeStyle=elbowEdgeStyle;elbow=vertical;entryX=0.625;entryY=1;entryDx=0;entryDy=0;entryPerimeter=0;" edge="1" parent="1" source="zozidxdIgMNwXkoK9PDD-17" target="zozidxdIgMNwXkoK9PDD-9">
          <mxGeometry x="0.4389" y="8" relative="1" as="geometry">
            <mxPoint x="150" y="670" as="sourcePoint" />
            <mxPoint x="240" y="540" as="targetPoint" />
            <Array as="points">
              <mxPoint x="300" y="600" />
            </Array>
            <mxPoint y="1" as="offset" />
          </mxGeometry>
        </mxCell>
        <mxCell id="zozidxdIgMNwXkoK9PDD-33" value="" style="resizable=0;html=1;align=center;verticalAlign=top;labelBackgroundColor=none;" connectable="0" vertex="1" parent="zozidxdIgMNwXkoK9PDD-32">
          <mxGeometry relative="1" as="geometry" />
        </mxCell>
        <mxCell id="zozidxdIgMNwXkoK9PDD-37" value="" style="endArrow=block;html=1;rounded=0;align=center;verticalAlign=bottom;endFill=0;labelBackgroundColor=none;endSize=8;entryX=0.518;entryY=0.997;entryDx=0;entryDy=0;entryPerimeter=0;exitX=0.5;exitY=0;exitDx=0;exitDy=0;edgeStyle=elbowEdgeStyle;elbow=vertical;" edge="1" parent="1" source="zozidxdIgMNwXkoK9PDD-25" target="zozidxdIgMNwXkoK9PDD-9">
          <mxGeometry relative="1" as="geometry">
            <mxPoint x="140" y="670" as="sourcePoint" />
            <mxPoint x="251" y="549" as="targetPoint" />
            <Array as="points">
              <mxPoint x="200" y="810" />
            </Array>
          </mxGeometry>
        </mxCell>
        <mxCell id="zozidxdIgMNwXkoK9PDD-38" value="" style="resizable=0;html=1;align=center;verticalAlign=top;labelBackgroundColor=none;" connectable="0" vertex="1" parent="zozidxdIgMNwXkoK9PDD-37">
          <mxGeometry relative="1" as="geometry" />
        </mxCell>
        <mxCell id="zozidxdIgMNwXkoK9PDD-39" value="" style="endArrow=block;html=1;rounded=0;align=center;verticalAlign=bottom;endFill=0;labelBackgroundColor=none;endSize=8;entryX=0.564;entryY=0.996;entryDx=0;entryDy=0;entryPerimeter=0;exitX=0.5;exitY=0;exitDx=0;exitDy=0;edgeStyle=elbowEdgeStyle;elbow=vertical;" edge="1" parent="1" source="zozidxdIgMNwXkoK9PDD-21" target="zozidxdIgMNwXkoK9PDD-9">
          <mxGeometry relative="1" as="geometry">
            <mxPoint x="140" y="830" as="sourcePoint" />
            <mxPoint x="261" y="552" as="targetPoint" />
            <Array as="points">
              <mxPoint x="190" y="810" />
            </Array>
          </mxGeometry>
        </mxCell>
        <mxCell id="zozidxdIgMNwXkoK9PDD-40" value="" style="resizable=0;html=1;align=center;verticalAlign=top;labelBackgroundColor=none;" connectable="0" vertex="1" parent="zozidxdIgMNwXkoK9PDD-39">
          <mxGeometry relative="1" as="geometry" />
        </mxCell>
        <mxCell id="zozidxdIgMNwXkoK9PDD-36" value="&lt;span style=&quot;color: rgb(0, 0, 0); font-family: Helvetica; font-size: 11px; font-style: normal; font-variant-ligatures: normal; font-variant-caps: normal; font-weight: 400; letter-spacing: normal; orphans: 2; text-align: center; text-indent: 0px; text-transform: none; widows: 2; word-spacing: 0px; -webkit-text-stroke-width: 0px; white-space: nowrap; background-color: rgb(251, 251, 251); text-decoration-thickness: initial; text-decoration-style: initial; text-decoration-color: initial; display: inline !important; float: none;&quot;&gt;отношение обобщения (наследование)&lt;/span&gt;" style="text;whiteSpace=wrap;html=1;" vertex="1" parent="1">
          <mxGeometry x="220" y="570" width="100" height="30" as="geometry" />
        </mxCell>
        <mxCell id="zozidxdIgMNwXkoK9PDD-43" value="LuxuryTransport " style="swimlane;fontStyle=0;childLayout=stackLayout;horizontal=1;startSize=26;horizontalStack=0;resizeParent=1;resizeParentMax=0;resizeLast=0;collapsible=1;marginBottom=0;align=center;fontSize=14;" vertex="1" parent="1">
          <mxGeometry x="540" y="150" width="310" height="100" as="geometry" />
        </mxCell>
        <mxCell id="zozidxdIgMNwXkoK9PDD-44" value="&lt;div style=&quot;background-color:#1e1f22;color:#bcbec4&quot;&gt;&lt;pre style=&quot;font-family:&#39;JetBrains Mono&#39;,monospace;font-size:9,8pt;&quot;&gt;&lt;span style=&quot;color:#cf8e6d;&quot;&gt;public &lt;/span&gt;&lt;span style=&quot;color:#56a8f5;&quot;&gt;LuxuryTransport&lt;/span&gt;(String name, String engineType) &lt;/pre&gt;&lt;/div&gt;" style="text;strokeColor=none;fillColor=none;spacingLeft=4;spacingRight=4;overflow=hidden;rotatable=0;points=[[0,0.5],[1,0.5]];portConstraint=eastwest;fontSize=12;whiteSpace=wrap;html=1;" vertex="1" parent="zozidxdIgMNwXkoK9PDD-43">
          <mxGeometry y="26" width="310" height="30" as="geometry" />
        </mxCell>
        <mxCell id="zozidxdIgMNwXkoK9PDD-45" value="&lt;div style=&quot;background-color:#1e1f22;color:#bcbec4&quot;&gt;&lt;pre style=&quot;font-family:&#39;JetBrains Mono&#39;,monospace;font-size:9,8pt;&quot;&gt;&lt;span style=&quot;color:#cf8e6d;&quot;&gt;public void &lt;/span&gt;&lt;span style=&quot;color:#56a8f5;&quot;&gt;drive&lt;/span&gt;()&lt;/pre&gt;&lt;/div&gt;" style="text;strokeColor=none;fillColor=none;spacingLeft=4;spacingRight=4;overflow=hidden;rotatable=0;points=[[0,0.5],[1,0.5]];portConstraint=eastwest;fontSize=12;whiteSpace=wrap;html=1;" vertex="1" parent="zozidxdIgMNwXkoK9PDD-43">
          <mxGeometry y="56" width="310" height="44" as="geometry" />
        </mxCell>
        <mxCell id="zozidxdIgMNwXkoK9PDD-47" value="" style="endArrow=block;startArrow=none;endFill=0;startFill=0;endSize=8;html=1;verticalAlign=bottom;dashed=1;labelBackgroundColor=none;rounded=0;entryX=1;entryY=0.5;entryDx=0;entryDy=0;exitX=0;exitY=0.5;exitDx=0;exitDy=0;" edge="1" parent="1" source="zozidxdIgMNwXkoK9PDD-44" target="zozidxdIgMNwXkoK9PDD-1">
          <mxGeometry width="160" relative="1" as="geometry">
            <mxPoint x="331" y="269" as="sourcePoint" />
            <mxPoint x="330" y="180" as="targetPoint" />
          </mxGeometry>
        </mxCell>
        <mxCell id="zozidxdIgMNwXkoK9PDD-48" value="Реализация интерфейса" style="text;html=1;align=center;verticalAlign=middle;whiteSpace=wrap;rounded=0;" vertex="1" parent="1">
          <mxGeometry x="290" y="150" width="130" height="30" as="geometry" />
        </mxCell>
        <mxCell id="zozidxdIgMNwXkoK9PDD-49" value="Engine" style="swimlane;fontStyle=0;childLayout=stackLayout;horizontal=1;startSize=26;horizontalStack=0;resizeParent=1;resizeParentMax=0;resizeLast=0;collapsible=1;marginBottom=0;align=center;fontSize=14;" vertex="1" parent="1">
          <mxGeometry x="-570" y="340" width="460" height="160" as="geometry" />
        </mxCell>
        <mxCell id="zozidxdIgMNwXkoK9PDD-50" value="&lt;div style=&quot;background-color:#1e1f22;color:#bcbec4&quot;&gt;&lt;pre style=&quot;font-family:&#39;JetBrains Mono&#39;,monospace;font-size:9,8pt;&quot;&gt;&lt;span style=&quot;color:#cf8e6d;&quot;&gt;protected &lt;/span&gt;EngineType &lt;span style=&quot;color:#c77dbb;&quot;&gt;engineType&lt;/span&gt;&lt;/pre&gt;&lt;/div&gt;" style="text;strokeColor=none;fillColor=none;spacingLeft=4;spacingRight=4;overflow=hidden;rotatable=0;points=[[0,0.5],[1,0.5]];portConstraint=eastwest;fontSize=12;whiteSpace=wrap;html=1;" vertex="1" parent="zozidxdIgMNwXkoK9PDD-49">
          <mxGeometry y="26" width="460" height="30" as="geometry" />
        </mxCell>
        <mxCell id="zozidxdIgMNwXkoK9PDD-51" value="&lt;div style=&quot;background-color:#1e1f22;color:#bcbec4&quot;&gt;&lt;pre style=&quot;font-family:&#39;JetBrains Mono&#39;,monospace;font-size:9,8pt;&quot;&gt;&lt;span style=&quot;color:#cf8e6d;&quot;&gt;public &lt;/span&gt;&lt;span style=&quot;color:#56a8f5;&quot;&gt;Engine&lt;/span&gt;(EngineType engineType)&lt;/pre&gt;&lt;/div&gt;" style="text;strokeColor=none;fillColor=none;spacingLeft=4;spacingRight=4;overflow=hidden;rotatable=0;points=[[0,0.5],[1,0.5]];portConstraint=eastwest;fontSize=12;whiteSpace=wrap;html=1;" vertex="1" parent="zozidxdIgMNwXkoK9PDD-49">
          <mxGeometry y="56" width="460" height="30" as="geometry" />
        </mxCell>
        <mxCell id="zozidxdIgMNwXkoK9PDD-52" value="&lt;div style=&quot;background-color:#1e1f22;color:#bcbec4&quot;&gt;&lt;pre style=&quot;font-family:&#39;JetBrains Mono&#39;,monospace;font-size:9,8pt;&quot;&gt;&lt;span style=&quot;color:#cf8e6d;&quot;&gt;public &lt;/span&gt;EngineType &lt;span style=&quot;color:#56a8f5;&quot;&gt;getEngineType&lt;/span&gt;()&lt;/pre&gt;&lt;/div&gt;" style="text;strokeColor=none;fillColor=none;spacingLeft=4;spacingRight=4;overflow=hidden;rotatable=0;points=[[0,0.5],[1,0.5]];portConstraint=eastwest;fontSize=12;whiteSpace=wrap;html=1;" vertex="1" parent="zozidxdIgMNwXkoK9PDD-49">
          <mxGeometry y="86" width="460" height="30" as="geometry" />
        </mxCell>
        <mxCell id="zozidxdIgMNwXkoK9PDD-58" value="&lt;div style=&quot;background-color:#1e1f22;color:#bcbec4&quot;&gt;&lt;pre style=&quot;font-family:&#39;JetBrains Mono&#39;,monospace;font-size:9,8pt;&quot;&gt;&lt;div&gt;&lt;pre style=&quot;font-family:&#39;JetBrains Mono&#39;,monospace;font-size:9,8pt;&quot;&gt;&lt;span style=&quot;color:#cf8e6d;&quot;&gt;protected static &lt;/span&gt;Engine &lt;span style=&quot;color:#56a8f5;&quot;&gt;createEngine&lt;/span&gt;(String engineType)&lt;/pre&gt;&lt;/div&gt;&lt;/pre&gt;&lt;/div&gt;" style="text;strokeColor=none;fillColor=none;spacingLeft=4;spacingRight=4;overflow=hidden;rotatable=0;points=[[0,0.5],[1,0.5]];portConstraint=eastwest;fontSize=12;whiteSpace=wrap;html=1;" vertex="1" parent="zozidxdIgMNwXkoK9PDD-49">
          <mxGeometry y="116" width="460" height="44" as="geometry" />
        </mxCell>
        <mxCell id="zozidxdIgMNwXkoK9PDD-53" value="" style="endArrow=diamondThin;endFill=1;endSize=24;html=1;rounded=0;entryX=0.001;entryY=0.079;entryDx=0;entryDy=0;entryPerimeter=0;exitX=1.006;exitY=0.197;exitDx=0;exitDy=0;exitPerimeter=0;" edge="1" parent="1" source="zozidxdIgMNwXkoK9PDD-51" target="zozidxdIgMNwXkoK9PDD-9">
          <mxGeometry width="160" relative="1" as="geometry">
            <mxPoint x="-140" y="320" as="sourcePoint" />
            <mxPoint x="20" y="320" as="targetPoint" />
          </mxGeometry>
        </mxCell>
        <mxCell id="zozidxdIgMNwXkoK9PDD-56" value="Композиция" style="text;html=1;align=center;verticalAlign=middle;whiteSpace=wrap;rounded=0;" vertex="1" parent="1">
          <mxGeometry x="-60" y="370" width="60" height="30" as="geometry" />
        </mxCell>
        <mxCell id="zozidxdIgMNwXkoK9PDD-94" value="" style="edgeStyle=orthogonalEdgeStyle;rounded=0;orthogonalLoop=1;jettySize=auto;html=1;fontFamily=Helvetica;fontSize=12;fontColor=default;" edge="1" parent="1" source="zozidxdIgMNwXkoK9PDD-57" target="zozidxdIgMNwXkoK9PDD-58">
          <mxGeometry relative="1" as="geometry" />
        </mxCell>
        <mxCell id="zozidxdIgMNwXkoK9PDD-57" value="Мотор не может существовать без транспорта" style="text;html=1;align=center;verticalAlign=middle;whiteSpace=wrap;rounded=0;" vertex="1" parent="1">
          <mxGeometry x="-70" y="426" width="60" height="30" as="geometry" />
        </mxCell>
        <mxCell id="zozidxdIgMNwXkoK9PDD-59" value="&lt;div style=&quot;background-color:#1e1f22;color:#bcbec4&quot;&gt;&lt;pre style=&quot;font-family:&#39;JetBrains Mono&#39;,monospace;font-size:9,8pt;&quot;&gt;EngineType&lt;/pre&gt;&lt;/div&gt;" style="swimlane;fontStyle=0;childLayout=stackLayout;horizontal=1;startSize=30;horizontalStack=0;resizeParent=1;resizeParentMax=0;resizeLast=0;collapsible=1;marginBottom=0;whiteSpace=wrap;html=1;" vertex="1" parent="1">
          <mxGeometry x="-420" y="600" width="140" height="60" as="geometry" />
        </mxCell>
        <mxCell id="zozidxdIgMNwXkoK9PDD-63" value="" style="endArrow=diamondThin;endFill=1;endSize=24;html=1;rounded=0;entryX=0.477;entryY=1.003;entryDx=0;entryDy=0;entryPerimeter=0;exitX=0.5;exitY=0;exitDx=0;exitDy=0;" edge="1" parent="1" source="zozidxdIgMNwXkoK9PDD-59" target="zozidxdIgMNwXkoK9PDD-58">
          <mxGeometry width="160" relative="1" as="geometry">
            <mxPoint x="-370" y="583" as="sourcePoint" />
            <mxPoint x="-222" y="587" as="targetPoint" />
          </mxGeometry>
        </mxCell>
        <mxCell id="zozidxdIgMNwXkoK9PDD-64" value="Композиция" style="text;html=1;align=center;verticalAlign=middle;whiteSpace=wrap;rounded=0;rotation=0;" vertex="1" parent="1">
          <mxGeometry x="-430" y="530" width="60" height="30" as="geometry" />
        </mxCell>
        <mxCell id="zozidxdIgMNwXkoK9PDD-65" value="&lt;div style=&quot;background-color:#1e1f22;color:#bcbec4&quot;&gt;&lt;pre style=&quot;font-family:&#39;JetBrains Mono&#39;,monospace;font-size:9,8pt;&quot;&gt;Limousine&lt;/pre&gt;&lt;/div&gt;" style="swimlane;fontStyle=0;childLayout=stackLayout;horizontal=1;startSize=30;horizontalStack=0;resizeParent=1;resizeParentMax=0;resizeLast=0;collapsible=1;marginBottom=0;whiteSpace=wrap;html=1;" vertex="1" parent="1">
          <mxGeometry x="540" y="324" width="346" height="90" as="geometry" />
        </mxCell>
        <mxCell id="zozidxdIgMNwXkoK9PDD-66" value="&lt;div style=&quot;background-color:#1e1f22;color:#bcbec4&quot;&gt;&lt;pre style=&quot;font-family:&#39;JetBrains Mono&#39;,monospace;font-size:9,8pt;&quot;&gt;&lt;span style=&quot;color:#cf8e6d;&quot;&gt;public &lt;/span&gt;&lt;span style=&quot;color:#56a8f5;&quot;&gt;Limousine&lt;/span&gt;(String name, String engineType)&lt;/pre&gt;&lt;/div&gt;" style="text;strokeColor=none;fillColor=none;align=left;verticalAlign=middle;spacingLeft=4;spacingRight=4;overflow=hidden;points=[[0,0.5],[1,0.5]];portConstraint=eastwest;rotatable=0;whiteSpace=wrap;html=1;" vertex="1" parent="zozidxdIgMNwXkoK9PDD-65">
          <mxGeometry y="30" width="346" height="30" as="geometry" />
        </mxCell>
        <mxCell id="zozidxdIgMNwXkoK9PDD-67" value="&lt;div style=&quot;background-color:#1e1f22;color:#bcbec4&quot;&gt;&lt;pre style=&quot;font-family:&#39;JetBrains Mono&#39;,monospace;font-size:9,8pt;&quot;&gt;&lt;span style=&quot;color:#cf8e6d;&quot;&gt;public void &lt;/span&gt;&lt;span style=&quot;color:#56a8f5;&quot;&gt;displayInfo&lt;/span&gt;()&lt;/pre&gt;&lt;/div&gt;" style="text;strokeColor=none;fillColor=none;align=left;verticalAlign=middle;spacingLeft=4;spacingRight=4;overflow=hidden;points=[[0,0.5],[1,0.5]];portConstraint=eastwest;rotatable=0;whiteSpace=wrap;html=1;" vertex="1" parent="zozidxdIgMNwXkoK9PDD-65">
          <mxGeometry y="60" width="346" height="30" as="geometry" />
        </mxCell>
        <mxCell id="zozidxdIgMNwXkoK9PDD-69" value="&lt;div style=&quot;background-color:#1e1f22;color:#bcbec4&quot;&gt;&lt;pre style=&quot;font-family:&#39;JetBrains Mono&#39;,monospace;font-size:9,8pt;&quot;&gt;&lt;div&gt;&lt;pre style=&quot;font-family:&#39;JetBrains Mono&#39;,monospace;font-size:9,8pt;&quot;&gt;Yacht&lt;/pre&gt;&lt;/div&gt;&lt;/pre&gt;&lt;/div&gt;" style="swimlane;fontStyle=0;childLayout=stackLayout;horizontal=1;startSize=30;horizontalStack=0;resizeParent=1;resizeParentMax=0;resizeLast=0;collapsible=1;marginBottom=0;whiteSpace=wrap;html=1;" vertex="1" parent="1">
          <mxGeometry x="970" y="336" width="346" height="90" as="geometry" />
        </mxCell>
        <mxCell id="zozidxdIgMNwXkoK9PDD-70" value="&lt;div style=&quot;background-color:#1e1f22;color:#bcbec4&quot;&gt;&lt;pre style=&quot;font-family:&#39;JetBrains Mono&#39;,monospace;font-size:9,8pt;&quot;&gt;&lt;div&gt;&lt;pre style=&quot;font-family:&#39;JetBrains Mono&#39;,monospace;font-size:9,8pt;&quot;&gt;&lt;span style=&quot;color:#cf8e6d;&quot;&gt;public &lt;/span&gt;&lt;span style=&quot;color:#56a8f5;&quot;&gt;Yacht&lt;/span&gt;(String name, String engineType)&lt;/pre&gt;&lt;/div&gt;&lt;/pre&gt;&lt;/div&gt;" style="text;strokeColor=none;fillColor=none;align=left;verticalAlign=middle;spacingLeft=4;spacingRight=4;overflow=hidden;points=[[0,0.5],[1,0.5]];portConstraint=eastwest;rotatable=0;whiteSpace=wrap;html=1;" vertex="1" parent="zozidxdIgMNwXkoK9PDD-69">
          <mxGeometry y="30" width="346" height="30" as="geometry" />
        </mxCell>
        <mxCell id="zozidxdIgMNwXkoK9PDD-71" value="&lt;div style=&quot;background-color:#1e1f22;color:#bcbec4&quot;&gt;&lt;pre style=&quot;font-family:&#39;JetBrains Mono&#39;,monospace;font-size:9,8pt;&quot;&gt;&lt;span style=&quot;color:#cf8e6d;&quot;&gt;public void &lt;/span&gt;&lt;span style=&quot;color:#56a8f5;&quot;&gt;displayInfo&lt;/span&gt;()&lt;/pre&gt;&lt;/div&gt;" style="text;strokeColor=none;fillColor=none;align=left;verticalAlign=middle;spacingLeft=4;spacingRight=4;overflow=hidden;points=[[0,0.5],[1,0.5]];portConstraint=eastwest;rotatable=0;whiteSpace=wrap;html=1;" vertex="1" parent="zozidxdIgMNwXkoK9PDD-69">
          <mxGeometry y="60" width="346" height="30" as="geometry" />
        </mxCell>
        <mxCell id="zozidxdIgMNwXkoK9PDD-72" value="&lt;div style=&quot;background-color:#1e1f22;color:#bcbec4&quot;&gt;&lt;pre style=&quot;font-family:&#39;JetBrains Mono&#39;,monospace;font-size:9,8pt;&quot;&gt;&lt;pre style=&quot;font-family:&#39;JetBrains Mono&#39;,monospace;font-size:9,8pt;&quot;&gt;&lt;div&gt;&lt;pre style=&quot;font-family:&#39;JetBrains Mono&#39;,monospace;font-size:9,8pt;&quot;&gt;PrivateJet&lt;/pre&gt;&lt;/div&gt;&lt;/pre&gt;&lt;/pre&gt;&lt;/div&gt;" style="swimlane;fontStyle=0;childLayout=stackLayout;horizontal=1;startSize=30;horizontalStack=0;resizeParent=1;resizeParentMax=0;resizeLast=0;collapsible=1;marginBottom=0;whiteSpace=wrap;html=1;" vertex="1" parent="1">
          <mxGeometry x="600" y="470" width="346" height="90" as="geometry" />
        </mxCell>
        <mxCell id="zozidxdIgMNwXkoK9PDD-73" value="&lt;div style=&quot;background-color:#1e1f22;color:#bcbec4&quot;&gt;&lt;pre style=&quot;font-family:&#39;JetBrains Mono&#39;,monospace;font-size:9,8pt;&quot;&gt;&lt;pre style=&quot;font-family:&#39;JetBrains Mono&#39;,monospace;font-size:9,8pt;&quot;&gt;&lt;div&gt;&lt;pre style=&quot;font-family:&#39;JetBrains Mono&#39;,monospace;font-size:9,8pt;&quot;&gt;&lt;span style=&quot;color:#cf8e6d;&quot;&gt;public &lt;/span&gt;&lt;span style=&quot;color:#56a8f5;&quot;&gt;PrivateJet&lt;/span&gt;(String name, String engineType)&lt;/pre&gt;&lt;/div&gt;&lt;/pre&gt;&lt;/pre&gt;&lt;/div&gt;" style="text;strokeColor=none;fillColor=none;align=left;verticalAlign=middle;spacingLeft=4;spacingRight=4;overflow=hidden;points=[[0,0.5],[1,0.5]];portConstraint=eastwest;rotatable=0;whiteSpace=wrap;html=1;" vertex="1" parent="zozidxdIgMNwXkoK9PDD-72">
          <mxGeometry y="30" width="346" height="30" as="geometry" />
        </mxCell>
        <mxCell id="zozidxdIgMNwXkoK9PDD-74" value="&lt;div style=&quot;background-color:#1e1f22;color:#bcbec4&quot;&gt;&lt;pre style=&quot;font-family:&#39;JetBrains Mono&#39;,monospace;font-size:9,8pt;&quot;&gt;&lt;span style=&quot;color:#cf8e6d;&quot;&gt;public void &lt;/span&gt;&lt;span style=&quot;color:#56a8f5;&quot;&gt;displayInfo&lt;/span&gt;()&lt;/pre&gt;&lt;/div&gt;" style="text;strokeColor=none;fillColor=none;align=left;verticalAlign=middle;spacingLeft=4;spacingRight=4;overflow=hidden;points=[[0,0.5],[1,0.5]];portConstraint=eastwest;rotatable=0;whiteSpace=wrap;html=1;" vertex="1" parent="zozidxdIgMNwXkoK9PDD-72">
          <mxGeometry y="60" width="346" height="30" as="geometry" />
        </mxCell>
        <mxCell id="zozidxdIgMNwXkoK9PDD-75" value="" style="endArrow=block;html=1;rounded=0;align=center;verticalAlign=bottom;endFill=0;labelBackgroundColor=none;endSize=8;exitX=0.5;exitY=0;exitDx=0;exitDy=0;edgeStyle=elbowEdgeStyle;elbow=vertical;entryX=0.678;entryY=1.12;entryDx=0;entryDy=0;entryPerimeter=0;" edge="1" parent="1" source="zozidxdIgMNwXkoK9PDD-69" target="zozidxdIgMNwXkoK9PDD-45">
          <mxGeometry x="0.4389" y="8" relative="1" as="geometry">
            <mxPoint x="890" y="370" as="sourcePoint" />
            <mxPoint x="750" y="270" as="targetPoint" />
            <Array as="points">
              <mxPoint x="740" y="310" />
            </Array>
            <mxPoint y="1" as="offset" />
          </mxGeometry>
        </mxCell>
        <mxCell id="zozidxdIgMNwXkoK9PDD-76" value="" style="resizable=0;html=1;align=center;verticalAlign=top;labelBackgroundColor=none;" connectable="0" vertex="1" parent="zozidxdIgMNwXkoK9PDD-75">
          <mxGeometry relative="1" as="geometry" />
        </mxCell>
        <mxCell id="zozidxdIgMNwXkoK9PDD-77" value="" style="endArrow=block;html=1;rounded=0;align=center;verticalAlign=bottom;endFill=0;labelBackgroundColor=none;endSize=8;edgeStyle=orthogonalEdgeStyle;entryX=0.373;entryY=1.092;entryDx=0;entryDy=0;entryPerimeter=0;exitX=0.5;exitY=0;exitDx=0;exitDy=0;elbow=horizontal;" edge="1" parent="1" target="zozidxdIgMNwXkoK9PDD-45">
          <mxGeometry x="0.4389" y="8" relative="1" as="geometry">
            <mxPoint x="766.43" y="503.48" as="sourcePoint" />
            <mxPoint x="609.9999999999997" y="280.0039999999999" as="targetPoint" />
            <Array as="points">
              <mxPoint x="766" y="440" />
              <mxPoint x="490" y="440" />
              <mxPoint x="490" y="310" />
              <mxPoint x="656" y="310" />
            </Array>
            <mxPoint y="1" as="offset" />
          </mxGeometry>
        </mxCell>
        <mxCell id="zozidxdIgMNwXkoK9PDD-78" value="" style="resizable=0;html=1;align=center;verticalAlign=top;labelBackgroundColor=none;" connectable="0" vertex="1" parent="zozidxdIgMNwXkoK9PDD-77">
          <mxGeometry relative="1" as="geometry" />
        </mxCell>
        <mxCell id="zozidxdIgMNwXkoK9PDD-79" value="" style="endArrow=block;html=1;rounded=0;align=center;verticalAlign=bottom;endFill=0;labelBackgroundColor=none;endSize=8;exitX=0.5;exitY=0;exitDx=0;exitDy=0;edgeStyle=elbowEdgeStyle;elbow=vertical;entryX=0.553;entryY=1.106;entryDx=0;entryDy=0;entryPerimeter=0;" edge="1" parent="1" source="zozidxdIgMNwXkoK9PDD-65" target="zozidxdIgMNwXkoK9PDD-45">
          <mxGeometry x="0.4389" y="8" relative="1" as="geometry">
            <mxPoint x="1103" y="361" as="sourcePoint" />
            <mxPoint x="710" y="280" as="targetPoint" />
            <Array as="points">
              <mxPoint x="700" y="335" />
            </Array>
            <mxPoint y="1" as="offset" />
          </mxGeometry>
        </mxCell>
        <mxCell id="zozidxdIgMNwXkoK9PDD-80" value="" style="resizable=0;html=1;align=center;verticalAlign=top;labelBackgroundColor=none;" connectable="0" vertex="1" parent="zozidxdIgMNwXkoK9PDD-79">
          <mxGeometry relative="1" as="geometry" />
        </mxCell>
        <mxCell id="zozidxdIgMNwXkoK9PDD-81" value="&lt;span style=&quot;color: rgb(0, 0, 0); font-family: Helvetica; font-size: 11px; font-style: normal; font-variant-ligatures: normal; font-variant-caps: normal; font-weight: 400; letter-spacing: normal; orphans: 2; text-align: center; text-indent: 0px; text-transform: none; widows: 2; word-spacing: 0px; -webkit-text-stroke-width: 0px; white-space: nowrap; background-color: rgb(251, 251, 251); text-decoration-thickness: initial; text-decoration-style: initial; text-decoration-color: initial; display: inline !important; float: none;&quot;&gt;отношение обобщения (наследование)&lt;/span&gt;" style="text;whiteSpace=wrap;html=1;" vertex="1" parent="1">
          <mxGeometry x="610" y="280" width="100" height="30" as="geometry" />
        </mxCell>
        <mxCell id="zozidxdIgMNwXkoK9PDD-82" value="Main" style="swimlane;fontStyle=0;childLayout=stackLayout;horizontal=1;startSize=30;horizontalStack=0;resizeParent=1;resizeParentMax=0;resizeLast=0;collapsible=1;marginBottom=0;whiteSpace=wrap;html=1;" vertex="1" parent="1">
          <mxGeometry x="940" y="686" width="140" height="60" as="geometry" />
        </mxCell>
        <mxCell id="zozidxdIgMNwXkoK9PDD-88" value="" style="endArrow=open;html=1;rounded=0;align=center;verticalAlign=bottom;dashed=1;endFill=0;labelBackgroundColor=none;entryX=0.434;entryY=1.077;entryDx=0;entryDy=0;entryPerimeter=0;exitX=0.5;exitY=0;exitDx=0;exitDy=0;edgeStyle=orthogonalEdgeStyle;" edge="1" parent="1" source="zozidxdIgMNwXkoK9PDD-82" target="zozidxdIgMNwXkoK9PDD-71">
          <mxGeometry relative="1" as="geometry">
            <mxPoint x="690" y="490" as="sourcePoint" />
            <mxPoint x="850" y="490" as="targetPoint" />
            <Array as="points">
              <mxPoint x="1050" y="686" />
              <mxPoint x="1050" y="556" />
              <mxPoint x="1120" y="556" />
            </Array>
          </mxGeometry>
        </mxCell>
        <mxCell id="zozidxdIgMNwXkoK9PDD-89" value="" style="resizable=0;html=1;align=center;verticalAlign=top;labelBackgroundColor=none;" connectable="0" vertex="1" parent="zozidxdIgMNwXkoK9PDD-88">
          <mxGeometry relative="1" as="geometry">
            <mxPoint y="43" as="offset" />
          </mxGeometry>
        </mxCell>
        <mxCell id="zozidxdIgMNwXkoK9PDD-91" value="" style="endArrow=open;html=1;rounded=0;align=center;verticalAlign=bottom;dashed=1;endFill=0;labelBackgroundColor=none;entryX=0.922;entryY=1.03;entryDx=0;entryDy=0;exitX=0.305;exitY=0.025;exitDx=0;exitDy=0;exitPerimeter=0;edgeStyle=orthogonalEdgeStyle;entryPerimeter=0;" edge="1" parent="1" source="zozidxdIgMNwXkoK9PDD-82" target="zozidxdIgMNwXkoK9PDD-67">
          <mxGeometry relative="1" as="geometry">
            <mxPoint x="850" y="490" as="sourcePoint" />
            <mxPoint x="1010" y="490" as="targetPoint" />
            <Array as="points">
              <mxPoint x="983" y="450" />
              <mxPoint x="859" y="450" />
            </Array>
          </mxGeometry>
        </mxCell>
        <mxCell id="zozidxdIgMNwXkoK9PDD-93" value="&lt;br&gt;&lt;span style=&quot;text-wrap: nowrap;&quot;&gt;&amp;nbsp;Зависимость (изменения,&lt;/span&gt;&lt;span style=&quot;text-wrap: nowrap; background-color: initial;&quot;&gt;&amp;nbsp;внесенные в классы,&amp;nbsp;&lt;/span&gt;&lt;div&gt;&lt;span style=&quot;text-wrap: nowrap;&quot;&gt;используемые в Main,&amp;nbsp;&lt;/span&gt;&lt;span style=&quot;text-wrap: nowrap; background-color: initial;&quot;&gt;могут потребовать&amp;nbsp;&lt;/span&gt;&lt;/div&gt;&lt;div&gt;&lt;span style=&quot;text-wrap: nowrap;&quot;&gt;изменения Main&lt;/span&gt;&lt;/div&gt;" style="text;html=1;align=center;verticalAlign=middle;whiteSpace=wrap;rounded=0;" vertex="1" parent="1">
          <mxGeometry x="850" y="600" width="184" height="90" as="geometry" />
        </mxCell>
        <mxCell id="zozidxdIgMNwXkoK9PDD-97" value="" style="endArrow=open;html=1;rounded=0;align=center;verticalAlign=bottom;dashed=1;endFill=0;labelBackgroundColor=none;fontFamily=Helvetica;fontSize=12;fontColor=default;exitX=0;exitY=0.5;exitDx=0;exitDy=0;entryX=1;entryY=0.5;entryDx=0;entryDy=0;edgeStyle=orthogonalEdgeStyle;" edge="1" parent="1" source="zozidxdIgMNwXkoK9PDD-82" target="zozidxdIgMNwXkoK9PDD-19">
          <mxGeometry relative="1" as="geometry">
            <mxPoint x="820" y="610" as="sourcePoint" />
            <mxPoint x="980" y="610" as="targetPoint" />
          </mxGeometry>
        </mxCell>
        <mxCell id="zozidxdIgMNwXkoK9PDD-98" value="" style="resizable=0;html=1;align=center;verticalAlign=top;labelBackgroundColor=none;rounded=0;fontFamily=Helvetica;fontSize=12;fontColor=default;fillColor=none;gradientColor=none;" connectable="0" vertex="1" parent="zozidxdIgMNwXkoK9PDD-97">
          <mxGeometry relative="1" as="geometry" />
        </mxCell>
        <mxCell id="zozidxdIgMNwXkoK9PDD-99" value="" style="endArrow=open;html=1;rounded=0;align=center;verticalAlign=bottom;dashed=1;endFill=0;labelBackgroundColor=none;fontFamily=Helvetica;fontSize=12;fontColor=default;entryX=0.395;entryY=0.883;entryDx=0;entryDy=0;edgeStyle=orthogonalEdgeStyle;entryPerimeter=0;exitX=0;exitY=0.25;exitDx=0;exitDy=0;" edge="1" parent="1" source="zozidxdIgMNwXkoK9PDD-82" target="zozidxdIgMNwXkoK9PDD-74">
          <mxGeometry relative="1" as="geometry">
            <mxPoint x="950" y="726" as="sourcePoint" />
            <mxPoint x="620" y="741" as="targetPoint" />
            <Array as="points">
              <mxPoint x="940" y="690" />
              <mxPoint x="737" y="690" />
            </Array>
          </mxGeometry>
        </mxCell>
        <mxCell id="zozidxdIgMNwXkoK9PDD-100" value="" style="resizable=0;html=1;align=center;verticalAlign=top;labelBackgroundColor=none;rounded=0;fontFamily=Helvetica;fontSize=12;fontColor=default;fillColor=none;gradientColor=none;" connectable="0" vertex="1" parent="zozidxdIgMNwXkoK9PDD-99">
          <mxGeometry relative="1" as="geometry" />
        </mxCell>
        <mxCell id="zozidxdIgMNwXkoK9PDD-101" value="" style="endArrow=open;html=1;rounded=0;align=center;verticalAlign=bottom;dashed=1;endFill=0;labelBackgroundColor=none;fontFamily=Helvetica;fontSize=12;fontColor=default;exitX=0.5;exitY=1;exitDx=0;exitDy=0;entryX=1.013;entryY=0.135;entryDx=0;entryDy=0;edgeStyle=orthogonalEdgeStyle;entryPerimeter=0;" edge="1" parent="1" source="zozidxdIgMNwXkoK9PDD-82" target="zozidxdIgMNwXkoK9PDD-23">
          <mxGeometry relative="1" as="geometry">
            <mxPoint x="950" y="726" as="sourcePoint" />
            <mxPoint x="620" y="741" as="targetPoint" />
            <Array as="points">
              <mxPoint x="1010" y="900" />
            </Array>
          </mxGeometry>
        </mxCell>
        <mxCell id="zozidxdIgMNwXkoK9PDD-102" value="" style="resizable=0;html=1;align=center;verticalAlign=top;labelBackgroundColor=none;rounded=0;fontFamily=Helvetica;fontSize=12;fontColor=default;fillColor=none;gradientColor=none;" connectable="0" vertex="1" parent="zozidxdIgMNwXkoK9PDD-101">
          <mxGeometry relative="1" as="geometry" />
        </mxCell>
        <mxCell id="zozidxdIgMNwXkoK9PDD-103" value="" style="endArrow=open;html=1;rounded=0;align=center;verticalAlign=bottom;dashed=1;endFill=0;labelBackgroundColor=none;fontFamily=Helvetica;fontSize=12;fontColor=default;exitX=0.75;exitY=1;exitDx=0;exitDy=0;entryX=0.863;entryY=1.043;entryDx=0;entryDy=0;edgeStyle=orthogonalEdgeStyle;entryPerimeter=0;" edge="1" parent="1" source="zozidxdIgMNwXkoK9PDD-82" target="zozidxdIgMNwXkoK9PDD-28">
          <mxGeometry relative="1" as="geometry">
            <mxPoint x="1020" y="756" as="sourcePoint" />
            <mxPoint x="714" y="910" as="targetPoint" />
            <Array as="points">
              <mxPoint x="1040" y="746" />
              <mxPoint x="1040" y="1040" />
              <mxPoint x="318" y="1040" />
            </Array>
          </mxGeometry>
        </mxCell>
        <mxCell id="zozidxdIgMNwXkoK9PDD-104" value="" style="resizable=0;html=1;align=center;verticalAlign=top;labelBackgroundColor=none;rounded=0;fontFamily=Helvetica;fontSize=12;fontColor=default;fillColor=none;gradientColor=none;" connectable="0" vertex="1" parent="zozidxdIgMNwXkoK9PDD-103">
          <mxGeometry relative="1" as="geometry" />
        </mxCell>
        <mxCell id="zozidxdIgMNwXkoK9PDD-105" value="" style="endArrow=open;html=1;rounded=0;align=center;verticalAlign=bottom;dashed=1;endFill=0;labelBackgroundColor=none;fontFamily=Helvetica;fontSize=12;fontColor=default;entryX=0.006;entryY=0.744;entryDx=0;entryDy=0;edgeStyle=orthogonalEdgeStyle;entryPerimeter=0;" edge="1" parent="1" target="zozidxdIgMNwXkoK9PDD-15">
          <mxGeometry relative="1" as="geometry">
            <mxPoint x="1061" y="748" as="sourcePoint" />
            <mxPoint x="329" y="1000" as="targetPoint" />
            <Array as="points">
              <mxPoint x="1061" y="1070" />
              <mxPoint x="20" y="1070" />
              <mxPoint x="20" y="738" />
            </Array>
          </mxGeometry>
        </mxCell>
        <mxCell id="zozidxdIgMNwXkoK9PDD-106" value="" style="resizable=0;html=1;align=center;verticalAlign=top;labelBackgroundColor=none;rounded=0;fontFamily=Helvetica;fontSize=12;fontColor=default;fillColor=none;gradientColor=none;" connectable="0" vertex="1" parent="zozidxdIgMNwXkoK9PDD-105">
          <mxGeometry relative="1" as="geometry" />
        </mxCell>
      </root>
    </mxGraphModel>
  </diagram>
</mxfile>
